<svg xmlns="http://www.w3.org/2000/svg" fill="none" viewBox="0 0 24 24" id="Gitlab--Streamline-Svg-Logos" height="24" width="24">
  <desc>
    Gitlab Streamline Icon: https://streamlinehq.com
  </desc>
  <path fill="#e24329" d="m11.999975 22.82365 4.327 -13.317075h-8.654l4.327 13.317075Z" stroke-width="0.25"></path>
  <path fill="#fc6d26" d="m12.000075 22.823625 -4.327 -13.317075H1.6088875L12.000075 22.823625Z" stroke-width="0.25"></path>
  <path fill="#fca326" d="M1.60881 9.5066 0.2939125 13.55355c-0.1199335 0.3691 0.0114225 0.77345 0.32542 1.001575L12 22.823675 1.60881 9.5066Z" stroke-width="0.25"></path>
  <path fill="#e24329" d="M1.6088875 9.5066H7.673075L5.0669 1.485865c-0.134025 -0.4127675 -0.717925 -0.4126575 -0.85195 0L1.6088875 9.5066Z" stroke-width="0.25"></path>
  <path fill="#fc6d26" d="m12 22.823625 4.327 -13.317075h6.0642L12 22.823625Z" stroke-width="0.25"></path>
  <path fill="#fca326" d="m22.3912 9.5066 1.3149 4.04695c0.119925 0.3691 -0.011425 0.77345 -0.325425 1.001575L12 22.823675l10.3912 -13.317075Z" stroke-width="0.25"></path>
  <path fill="#e24329" d="M22.391225 9.5066H16.327025L18.9332 1.485865c0.13405 -0.4127675 0.717925 -0.4126575 0.85195 0L22.391225 9.5066Z" stroke-width="0.25"></path>
</svg>