<svg xmlns="http://www.w3.org/2000/svg" id="Jenkins--Streamline-Svg-Logos" width="24" height="24" fill="none" viewBox="0 0 24 24"><desc>Jenkins Streamline Icon: https://streamlinehq.com</desc><path fill="#d33833" stroke-width=".25" d="M18.919975 9.781c0 3.917575 -3.1061 7.096425 -6.939725 7.096425 -3.83365 0 -6.939725 -3.17885 -6.939725 -7.096425 0 -3.9176 3.106075 -7.096425 6.939725 -7.096425 3.833625 0 6.939725 3.178825 6.939725 7.096425Z"/><path fill="#ef3d3a" stroke-width=".25" d="M5.32605 11.5383s-0.503675 -7.398625 6.3185 -7.6113l-0.4757 -0.7947 -3.699325 1.242425 -1.05775 1.21445 -0.923425 1.768525 -0.526075 2.059525 0.1567 1.37675"/><path fill="#231f20" stroke-width=".25" d="M7.228925 4.940025c-1.21445 1.248025 -1.97 2.96615 -1.97 4.868975 0 1.90285 0.75555 3.620975 1.97 4.869 1.22005 1.24805 2.893425 2.014775 4.751475 2.014775s3.531425 -0.766725 4.75145 -2.014775c1.214475 -1.248025 1.97 -2.96615 1.97 -4.869 0 -1.902825 -0.755525 -3.62095 -1.97 -4.868975 -1.220025 -1.24245 -2.8934 -2.014775 -4.75145 -2.014775 -1.852475 0 -3.531425 0.766725 -4.751475 2.014775Zm-0.307825 10.0346c-1.2928 -1.320775 -2.0931 -3.15085 -2.0931 -5.165625 0 -2.01475 0.8003 -3.844825 2.0931 -5.1712 1.292825 -1.320775 3.0837 -2.1434775 5.0593 -2.1434775 1.975575 0 3.766475 0.8227025 5.059275 2.1434775 1.2928 1.320775 2.0931 3.15085 2.0931 5.1712 0 2.014775 -0.8003 3.84485 -2.0931 5.165625 -1.2928 1.326375 -3.0837 2.143475 -5.059275 2.143475 -1.9756 0 -3.766475 -0.8171 -5.0593 -2.143475Z"/><path fill="#f0d6b7" stroke-width=".25" d="m14.901875 9.82015 -1.05775 0.156725 -1.427125 0.1623 -0.923425 0.022375 -0.90105 -0.027975 -0.688375 -0.212675 -0.610025 -0.6604 -0.4757 -1.348775 -0.10635 -0.291 -0.6324 -0.212675 -0.369375 -0.610025 -0.263025 -0.873075 0.291 -0.766725 0.688375 -0.24065 0.554075 0.26305 0.263025 0.582025 0.319 -0.05035 0.10635 -0.134325 -0.10635 -0.610025 -0.027975 -0.766725 0.1567 -1.05775 -0.0056 -0.604425 0.481325 -0.772325 0.845075 -0.6100225 1.477475 -0.63241 1.6398 0.24065 1.427125 1.029765 0.660375 1.0577425 0.42535 0.766725 0.106325 1.902825 -0.319 1.6398 -0.58205 1.4551 -0.54845 0.777925"/><path fill="#335061" stroke-width=".25" d="m14.006225 14.3926 -3.777675 0.1567v0.632425l0.319 2.221825 -0.1567 0.184675 -2.641575 -0.90105 -0.184675 -0.319 -0.26305 -2.98855 -0.6212 -1.7909 -0.134325 -0.425325 2.1155 -1.4551 0.660375 -0.26305 0.58205 0.71635 0.5037 0.447725 0.582025 0.1847 0.26305 0.07835 0.319 1.37675 0.24065 0.291025 0.610025 -0.212675 -0.42535 0.8227 2.2946 1.085725 -0.285425 0.1567Z"/><path fill="#6d6b6d" stroke-width=".25" d="m7.7383 5.169475 0.688375 -0.24065 0.55405 0.263025 0.26305 0.58205 0.319 -0.050375 0.07835 -0.319 -0.1567 -0.610025 0.1567 -1.4551 -0.134325 -0.7947L9.9825 1.990635l1.029775 -0.817095 -0.291025 -0.397355 -1.4551 0.7163575L8.656125 1.96825l-0.3414 0.73875 -0.526075 0.71635 -0.1567 0.845075 0.10635 0.90105Z"/><path fill="#dcd9d8" stroke-width=".25" d="M8.8239 2.684625s0.39735 -0.9793975 1.981175 -1.455105c1.583825 -0.4757075 0.07835 -0.34139 0.07835 -0.34139l-1.71815 0.6603925 -0.660375 0.6603925L8.213875 2.735l0.610025 -0.050375Z"/><path fill="#dcd9d8" stroke-width=".25" d="M8.029325 4.98475s-0.554075 -1.85245 1.561425 -2.115475l-0.07835 -0.319025 -1.4551 0.3414 -0.42535 1.37675 0.10635 0.90105 0.291025 -0.1847Z"/><path fill="#f7e4cd" stroke-width=".25" d="m8.874275 7.44165 0.346975 -0.335775s0.1567 0.016775 0.1847 0.201475c0.027975 0.184675 0.106325 1.85245 1.242425 2.7479 0.106325 0.08395 -0.845075 -0.134325 -0.845075 -0.134325l-0.845075 -1.320775"/><path fill="#f7e4cd" stroke-width=".25" d="M13.737775 6.93795s0.06155 -0.8003 0.279825 -0.73875c0.218275 0.061575 0.218275 0.279825 0.218275 0.279825s-0.526075 0.3358 -0.4981 0.458925Z"/><path fill="#f7e4cd" stroke-width=".25" d="M15.931575 4.0054s-0.43655 0.08955 -0.475725 0.4757c-0.039175 0.386175 0.475725 0.07835 0.554075 0.050375"/><path fill="#f7e4cd" stroke-width=".25" d="M12.7361 4.03335s-0.58205 0.07835 -0.58205 0.447725 0.6604 0.3414 0.845075 0.1847"/><path fill="#f7e4cd" stroke-width=".25" d="M9.143075 5.751475s-1.0018 -0.610025 -1.108125 -0.028c-0.106325 0.58205 -0.3414 1.0018 0.1567 1.611825l-0.341375 -0.10635 -0.319025 -0.8171 -0.106325 -0.7947 0.610025 -0.6324 0.688375 0.05035 0.39735 0.319025 0.0224 0.39735Z"/><path fill="#f7e4cd" stroke-width=".25" d="M9.618675 4.08375s0.447725 -2.3281625 2.719925 -2.7758875c1.86925 -0.3693725 2.85425 0.0783525 3.223625 0.50369 0 0 -1.667775 -1.98117825 -3.2516 -1.37675 -1.583825 0.6100225 -2.7479 1.71814 -2.719925 2.4288975 0.044775 1.22005 0.027975 1.22005 0.027975 1.22005Z"/><path fill="#f7e4cd" stroke-width=".25" d="M15.746975 2.07456s-0.766725 -0.0279825 -0.7947 0.66039c0 0 0 0.106325 0.050375 0.212675 0 0 0.610025 -0.68838 0.979375 -0.319"/><path fill="#f7e4cd" stroke-width=".25" d="M12.3945 3.0204s-0.1343 -1.0521525 -1.02975 -0.442125c-0.58205 0.39735 -0.526075 0.9514 -0.42535 1.05775 0.10635 0.106325 0.07835 0.319 0.1567 0.1735 0.07835 -0.145525 0.055975 -0.621225 0.347 -0.75555 0.285425 -0.134325 0.766725 -0.279825 0.9514 -0.033575Z"/><path fill="#49728b" stroke-width=".25" d="m9.909675 10.161575 -2.48485 1.1081s1.02975 4.096675 0.503675 5.3671l-0.369375 -0.134325 -0.027975 -1.561425 -0.688375 -2.954975 -0.291025 -0.8171 2.5912 -1.746125 0.766725 0.73875Z"/><path fill="#49728b" stroke-width=".25" d="m10.16135 12.4282 0.352575 0.430925v1.583825h-0.419725s-0.050375 -1.108125 -0.050375 -1.242425c0 -0.134325 0.050375 -0.610025 0.050375 -0.610025"/><path fill="#49728b" stroke-width=".25" d="m10.17265 14.6836 -1.19205 0.05035 0.341375 0.240675 0.845075 0.1343"/><path fill="#335061" stroke-width=".25" d="m14.24145 14.42055 0.9794 -0.027975 0.24065 2.4289 -1.001775 0.134325 -0.218275 -2.53525Z"/><path fill="#335061" stroke-width=".25" d="m14.504525 14.42055 1.477475 -0.07835s0.610025 -1.53345 0.610025 -1.6118c0 -0.07835 0.526075 -2.221825 0.526075 -2.221825l-1.19205 -1.24245 -0.24065 -0.21265 -0.632425 0.6324v2.456875l-0.54845 2.2778Z"/><path fill="#49728b" stroke-width=".25" d="m15.164875 14.2359 -0.923425 0.184675 0.134325 0.73875c0.341375 0.1567 0.923425 -0.263025 0.923425 -0.263025"/><path fill="#49728b" stroke-width=".25" d="m15.192875 9.607525 1.85245 1.37675 0.050375 -0.632425 -1.39915 -1.2928 -0.503675 0.548475Z"/><path fill="#fff" stroke-width=".25" d="m11.0906 19.625325 -0.54845 -2.221825 -0.274225 -1.639775 -0.044775 -1.21445 2.479275 -0.134325h1.53905l-0.139925 2.775875 0.24065 2.1435 -0.027975 0.39735 -2.009175 0.1567 -1.21445 -0.26305Z"/><path fill="#dcd9d8" stroke-width=".25" d="M13.900125 14.3926s-0.134325 2.7479 0.263025 4.7067c0 0 -0.7947 0.5037 -1.9532 0.6324l2.22185 -0.07835 0.263025 -0.1567 -0.319 -4.331725 -0.08395 -0.929025"/><path fill="#fff" stroke-width=".25" d="m15.500525 16.614425 1.029775 -0.291025 1.9532 -0.106325 0.291 -0.90105 -0.526075 -1.561425 -0.610025 -0.07835 -0.845075 0.263025 -0.8059 0.39735 -0.430925 -0.07835 -0.3358 0.134325"/><path fill="#dcd9d8" stroke-width=".25" d="M15.483775 16.0827s0.688375 -0.319 0.7947 -0.291l-0.291025 -1.4551 0.3414 -0.134325s0.24065 1.37675 0.24065 1.53345c0 0 1.477475 0.07835 1.6118 0.07835 0 0 0.319 -0.610025 0.24065 -1.242425l0.291025 0.845075 0.027975 0.4757 -0.425325 0.632425 -0.475725 0.106325 -0.7947 -0.027975 -0.263025 -0.3414 -0.92345 0.134325 -0.291 0.106325"/><path fill="#fff" stroke-width=".25" d="m14.442925 14.2079 -0.58205 -1.4775 -0.610025 -0.87305s0.134325 -0.369375 0.319 -0.369375h0.610025l0.58205 0.212675 -0.050375 0.9794 -0.268625 1.52785Z"/><path fill="#dcd9d8" stroke-width=".25" d="M14.560325 13.704175s-0.73875 -1.4271 -0.73875 -1.639775c0 0 0.134325 -0.319 0.319 -0.24065s0.58205 0.291025 0.58205 0.291025v-0.5037l-0.90105 -0.184675 -0.610025 0.07835 1.029775 2.4401 0.21265 0.027975"/><path fill="#fff" stroke-width=".25" d="m11.3257 10.217575 -0.73315 -0.07835 -0.688375 -0.212675v0.24065l0.3358 0.369375 1.05775 0.4757"/><path fill="#dcd9d8" stroke-width=".25" d="M10.144775 10.2959s0.8171 0.3414 1.085725 0.263025l0.028 0.319025 -0.73875 -0.156725 -0.447725 -0.319 0.07275 -0.106325Z"/><path fill="#d33833" stroke-width=".25" d="M15.500725 11.5775c-0.447725 -0.011175 -0.85625 -0.06715 -1.20885 -0.1679 0.0224 -0.1455 -0.022375 -0.2854 0.0168 -0.39175 0.100725 -0.07275 0.263025 -0.07275 0.41415 -0.08955 -0.128725 -0.06155 -0.313425 -0.089525 -0.458925 -0.05035 -0.0056 -0.10075 -0.050375 -0.1623 -0.07835 -0.240675 0.25185 -0.089525 0.845075 -0.677175 1.180875 -0.486875 0.1623 0.095125 0.22945 0.6212 0.24065 0.88425 0.0112 0.21265 -0.0224 0.425325 -0.10635 0.54285Z"/><path fill="#000" stroke="#d33833" stroke-width=".5" d="M15.500725 11.5775c-0.447725 -0.011175 -0.85625 -0.06715 -1.20885 -0.1679 0.0224 -0.1455 -0.022375 -0.2854 0.0168 -0.39175 0.100725 -0.07275 0.263025 -0.07275 0.41415 -0.08955 -0.128725 -0.06155 -0.313425 -0.089525 -0.458925 -0.05035 -0.0056 -0.10075 -0.050375 -0.1623 -0.07835 -0.240675 0.25185 -0.089525 0.845075 -0.677175 1.180875 -0.486875 0.1623 0.095125 0.22945 0.6212 0.24065 0.88425 0.0112 0.21265 -0.0224 0.425325 -0.10635 0.54285Z"/><path fill="#d33833" stroke-width=".25" d="M13.357175 10.84435c0 0.033575 0 0.06715 -0.0056 0.10075 -0.139925 0.089525 -0.363775 0.089525 -0.520475 0.1679 0.22385 0.011175 0.40295 0.06715 0.55965 0.1399 -0.0056 0.08395 -0.0056 0.1735 -0.0112 0.25745 -0.257425 0.173475 -0.4925 0.436525 -0.7947 0.604425 -0.145525 0.07835 -0.6436 0.279825 -0.794725 0.24065 -0.08395 -0.0224 -0.095125 -0.128725 -0.1287 -0.22945 -0.072775 -0.212675 -0.24065 -0.559675 -0.25745 -0.884275 -0.0168 -0.40855 -0.061575 -1.096925 0.380575 -1.012975 0.358175 0.067175 0.772325 0.229475 1.04655 0.380575 0.173475 0.100725 0.268625 0.212675 0.526075 0.23505Z"/><path fill="#000" stroke="#d33833" stroke-width=".5" d="M13.357175 10.84435c0 0.033575 0 0.06715 -0.0056 0.10075 -0.139925 0.089525 -0.363775 0.089525 -0.520475 0.1679 0.22385 0.011175 0.40295 0.06715 0.55965 0.1399 -0.0056 0.08395 -0.0056 0.1735 -0.0112 0.25745 -0.257425 0.173475 -0.4925 0.436525 -0.7947 0.604425 -0.145525 0.07835 -0.6436 0.279825 -0.794725 0.24065 -0.08395 -0.0224 -0.095125 -0.128725 -0.1287 -0.22945 -0.072775 -0.212675 -0.24065 -0.559675 -0.25745 -0.884275 -0.0168 -0.40855 -0.061575 -1.096925 0.380575 -1.012975 0.358175 0.067175 0.772325 0.229475 1.04655 0.380575 0.173475 0.100725 0.268625 0.212675 0.526075 0.23505Z"/><path fill="#d33833" stroke-width=".25" d="M13.609 11.331275c-0.039175 -0.223875 -0.08395 -0.285425 -0.067175 -0.481325 0.59885 -0.39735 0.705175 0.6828 0.067175 0.481325Z"/><path fill="#000" stroke="#d33833" stroke-width=".5" d="M13.609 11.331275c-0.039175 -0.223875 -0.08395 -0.285425 -0.067175 -0.481325 0.59885 -0.39735 0.705175 0.6828 0.067175 0.481325Z"/><path fill="#ef3d3a" stroke-width=".25" d="M14.4707 11.510375s-0.184675 -0.263025 -0.05035 -0.341375c0.1343 -0.07835 0.263025 0 0.341375 -0.134325 0.07835 -0.134325 0 -0.212675 0.028 -0.369375 0.027975 -0.1567 0.1567 -0.184675 0.291 -0.212675 0.134325 -0.027975 0.5037 -0.07835 0.554075 0.050375l-0.1567 -0.4757 -0.319025 -0.10635 -1.001775 0.58205 -0.050375 0.291025v0.58205"/><path fill="#ef3d3a" stroke-width=".25" d="M11.69505 12.383425c-0.033575 -0.41415 -0.06715 -0.8227 -0.100725 -1.23685 -0.055975 -0.615625 0.1455 -0.509275 0.682775 -0.509275 0.08395 0 0.5037 0.095125 0.531675 0.1567 0.1455 0.2966 -0.24065 0.22945 0.1679 0.453325 0.341375 0.184675 0.9514 -0.11195 0.8115 -0.531675 -0.07835 -0.09515 -0.40295 -0.028 -0.520475 -0.08955 -0.207075 -0.106325 -0.41415 -0.212675 -0.621225 -0.319 -0.26305 -0.134325 -0.867475 -0.3358 -1.1473 -0.145525 -0.71075 0.481325 0.044775 1.690175 0.296625 2.19385"/><path fill="#231f20" stroke-width=".25" d="M12.394575 3.0204c-0.72195 -0.1679 -1.080125 0.302225 -1.2984 0.789125 -0.195875 -0.044775 -0.117525 -0.3134 -0.06715 -0.447725 0.128725 -0.352575 0.6492 -0.8283 1.07455 -0.761125 0.179075 0.022375 0.425325 0.190275 0.291 0.419725Z"/><path fill="#231f20" stroke-width=".25" d="M15.9035 3.837475h0.033575c0.1623 0.335775 0.302225 0.69395 0.5093 0.996175 -0.139925 0.3246 -1.04095 0.604425 -1.029775 0.033575 0.195875 -0.08395 0.531675 -0.016775 0.705175 -0.128725 -0.10075 -0.274225 -0.24065 -0.509275 -0.218275 -0.901025Z"/><path fill="#231f20" stroke-width=".25" d="M12.758325 3.8487c0.1567 0.285425 0.207075 0.582025 0.425325 0.7947 0.10075 0.09515 0.291025 0.212675 0.1959 0.4813 -0.0224 0.061575 -0.1847 0.201475 -0.27985 0.229475 -0.341375 0.100725 -1.141675 0.022375 -0.87305 -0.40855 0.285425 0.011175 0.666 0.184675 0.87865 -0.0224 -0.1623 -0.257425 -0.4533 -0.772325 -0.346975 -1.074525Z"/><path fill="#231f20" stroke-width=".25" d="M15.77495 6.725325c-0.514875 0.3302 -1.091325 0.693975 -1.942 0.610025 -0.179075 -0.1567 -0.25185 -0.5093 -0.07275 -0.73875 0.08955 0.1567 0.033575 0.447725 0.291025 0.4925 0.4813 0.08395 1.04095 -0.296625 1.38795 -0.42535 0.21265 -0.363775 -0.0168 -0.4925 -0.212675 -0.72755 -0.39735 -0.4757 -0.923425 -1.068925 -0.90665 -1.7797 0.1623 -0.117525 0.1735 0.1791 0.195875 0.22945 0.207075 0.481325 0.72755 1.102525 1.102525 1.516675 0.09515 0.10075 0.24625 0.201475 0.26305 0.268625 0.05035 0.1903 -0.128725 0.42535 -0.10635 0.554075Z"/><path fill="#231f20" stroke-width=".25" d="M8.958175 6.3783c-0.1623 -0.09515 -0.201475 -0.4981 -0.391775 -0.5093 -0.274225 -0.0168 -0.22385 0.526075 -0.22385 0.845075 -0.1847 -0.1679 -0.218275 -0.693975 -0.08395 -0.9626 -0.1567 -0.07835 -0.223875 0.08395 -0.3134 0.139925 0.117525 -0.8115 1.19205 -0.374975 1.012975 0.4869Z"/><path fill="#231f20" stroke-width=".25" d="M16.099425 7.0667c-0.24065 0.458925 -0.58205 0.962625 -1.287225 0.9794 -0.016775 -0.1455 -0.027975 -0.37495 0 -0.4645 0.542875 -0.055975 0.878675 -0.3302 1.287225 -0.5149Z"/><path fill="#231f20" stroke-width=".25" d="M12.719 7.363275c0.447725 0.23505 1.276 0.26305 1.891625 0.24625 0.033575 0.134325 0.033575 0.302225 0.033575 0.464525 -0.7891 0.033575 -1.718125 -0.1623 -1.9252 -0.710775Z"/><path fill="#231f20" stroke-width=".25" d="M12.6352 7.799825c0.3134 0.783525 1.382325 0.693975 2.283375 0.6716 -0.039175 0.100725 -0.123125 0.22385 -0.23505 0.263025 -0.291025 0.117525 -1.085725 0.207075 -1.488675 -0.005575 -0.25185 -0.134325 -0.41975 -0.44215 -0.55965 -0.621225 -0.061575 -0.08395 -0.397375 -0.302225 0 -0.307825Z"/><path fill="#81b0c4" stroke-width=".25" d="M15.73555 12.11475c-0.363775 0.626825 -0.71635 1.270425 -1.1473 1.818875 0.1791 -0.531675 0.25745 -1.427125 0.285425 -2.1099 0.380575 -0.179075 0.705175 0.039175 0.861875 0.291025Z"/><path fill="#231f20" stroke-width=".25" d="M17.700075 14.3646c-0.40855 0.08395 -0.693975 0.4813 -1.096925 0.453325 0.22385 -0.307825 0.604425 -0.44215 1.096925 -0.453325Z"/><path fill="#231f20" stroke-width=".25" d="M17.87915 15.002575c-0.3358 0.033575 -0.72755 0.08955 -1.06335 0.06155 0.1623 -0.24625 0.777925 -0.1567 1.06335 -0.06155Z"/><path fill="#231f20" stroke-width=".25" d="M17.996725 15.556625c-0.37495 0.0056 -0.839475 0 -1.19765 -0.027975 0.212675 -0.22945 0.957 -0.08395 1.19765 0.027975Z"/><path fill="#dcd9d8" stroke-width=".25" d="M15.030425 17.06775c0.055975 0.4701 0.24065 0.9458 0.218275 1.4607 -0.207075 0.06715 -0.3246 0.1287 -0.604425 0.1287 -0.0168 -0.436525 -0.07835 -1.1081 -0.061575 -1.52785 0.134325 0.0112 0.3358 -0.095125 0.447725 -0.06155Z"/><path fill="#f0d6b7" stroke-width=".25" d="M14.425975 10.128025c-0.1903 0.123125 -0.347 0.274225 -0.531675 0.40855 -0.40295 0.022375 -0.621225 -0.028 -0.91225 -0.25745 0.0056 -0.016775 0.033575 -0.0112 0.033575 -0.033575 0.43095 0.190275 0.9794 -0.07835 1.41035 -0.117525Z"/><path fill="#81b0c4" stroke-width=".25" d="M12.1764 13.055c0.117525 -0.509275 0.582025 -0.777925 1.001775 -1.05775 0.430925 0.548475 0.693975 1.253625 0.985 1.9364 -0.688375 -0.207075 -1.38795 -0.53725 -1.986775 -0.87865Z"/><path fill="#231f20" stroke-width=".25" d="M14.58275 17.134875c-0.0168 0.41975 0.039175 1.085725 0.06155 1.527875 0.279825 0 0.397375 -0.061575 0.604425 -0.128725 0.0224 -0.5149 -0.1623 -0.9906 -0.21825 -1.4607 -0.111925 -0.039175 -0.3134 0.06715 -0.447725 0.06155Zm-4.32055 -2.372925c0.1847 1.68455 0.447725 3.094875 0.934625 4.589175 1.08015 0.330175 2.37855 0.358175 3.33555 0.06155 -0.1735 -0.839475 -0.100725 -1.86365 -0.201475 -2.7647 -0.07835 -0.677175 -0.039175 -1.35435 -0.1455 -2.042725 -1.1585 -0.24065 -2.792675 -0.055975 -3.9232 0.1567Zm4.197425 -0.145525c-0.0112 0.721975 0.033575 1.438325 0.08955 2.160275 0.279825 -0.039175 0.4645 -0.06715 0.72195 -0.128725 -0.08395 -0.693975 -0.07275 -1.483075 -0.24625 -2.0987 -0.195875 0.0056 -0.369375 0 -0.56525 0.06715Zm1.404725 -0.117525c-0.1343 -0.027975 -0.285425 0 -0.40855 0 0.061575 0.58765 0.201475 1.23685 0.25185 1.85805 0.195875 0.0056 0.302225 -0.089525 0.464525 -0.117525 0.011175 -0.54285 -0.044775 -1.2928 -0.307825 -1.740525Zm2.1323 1.9476c0.414125 -0.100725 0.671575 -0.604425 0.55405 -1.1249 -0.07835 -0.346975 -0.212675 -1.007375 -0.363775 -1.23125 -0.106325 -0.1623 -0.40295 -0.38055 -0.6436 -0.22945 -0.386175 0.24625 -1.06335 0.319 -1.343175 0.615625 0.139925 0.4701 0.184675 1.1081 0.24065 1.70135 0.4813 0.027975 1.06895 -0.134325 1.4719 0.039175 -0.279825 0.08955 -0.638025 0.08955 -0.878675 0.22385 0.201475 0.09515 0.6604 0.07835 0.962625 0.0056Zm-3.83925 -2.51285c-0.291 -0.682775 -0.55405 -1.38795 -0.984975 -1.9364 -0.41975 0.279825 -0.878675 0.54845 -1.0018 1.05775 0.604425 0.341375 1.304 0.671575 1.986775 0.87865Zm0.716375 -2.1099c-0.028 0.682775 -0.10635 1.578225 -0.285425 2.1099 0.430925 -0.55405 0.7835 -1.19205 1.147275 -1.818875 -0.1567 -0.25185 -0.4813 -0.4701 -0.86185 -0.291025Zm-0.8115 -0.285425c-0.1623 -0.016775 -0.302225 0.1903 -0.5149 0.10075 -0.05035 0.05595 -0.095125 0.111925 -0.1455 0.1679 0.4701 0.57085 0.688375 1.37675 1.05215 2.042725 0.195875 -0.6436 0.1735 -1.343175 0.218275 -2.042725 -0.26865 0.011175 -0.41975 -0.25185 -0.610025 -0.26865Zm-0.520475 -0.688375c-0.0168 0.195875 0.027975 0.25745 0.06715 0.4813 0.638 0.201475 0.531675 -0.87865 -0.06715 -0.4813Zm-0.710775 -0.23505c-0.274225 -0.1511 -0.688375 -0.3134 -1.04655 -0.380575 -0.442125 -0.083925 -0.39735 0.60445 -0.380575 1.012975 0.0168 0.3246 0.1847 0.666 0.25745 0.884275 0.033575 0.100725 0.044775 0.207075 0.128725 0.22945 0.1511 0.033575 0.6548 -0.1623 0.7947 -0.24065 0.302225 -0.1623 0.537275 -0.42535 0.794725 -0.604425 0.005575 -0.08395 0.005575 -0.1735 0.011175 -0.25745 -0.1567 -0.07835 -0.3302 -0.128725 -0.55965 -0.1399 0.1511 -0.07835 0.380575 -0.07835 0.520475 -0.1679 0 -0.033575 0 -0.067175 0.0056 -0.10075 -0.25745 -0.027975 -0.352575 -0.1399 -0.526075 -0.23505Zm-2.630375 -0.4757c-0.22945 0.23505 0.6436 0.54845 0.917825 0.56525 0 -0.145525 0.08395 -0.285425 0.067175 -0.39175 -0.3302 -0.055975 -0.76115 -0.0168 -0.985 -0.1735Zm2.82065 0.106325c0 0.0224 -0.027975 0.0168 -0.033575 0.033575 0.296625 0.229475 0.5149 0.279825 0.91225 0.25745 0.179075 -0.128725 0.341375 -0.285425 0.531675 -0.40855 -0.43655 0.039175 -0.985 0.307825 -1.41035 0.117525Zm2.585625 0.783525c-0.0112 -0.25745 -0.07835 -0.789125 -0.24065 -0.88425 -0.3358 -0.195875 -0.92905 0.39735 -1.180875 0.4869 0.027975 0.07835 0.07275 0.1399 0.07835 0.24065 0.1511 -0.039175 0.3302 -0.0112 0.4589 0.05035 -0.1511 0.0168 -0.3134 0.0168 -0.414125 0.08955 -0.0336 0.10635 0.011175 0.24625 -0.0168 0.391775 0.352575 0.100725 0.761125 0.1511 1.20885 0.167875 0.08395 -0.111925 0.117525 -0.3246 0.10635 -0.54285Zm-5.792425 -0.666c-0.072775 -0.05035 -0.559675 -0.682775 -0.626825 -0.6548 -0.87865 0.347 -1.70135 0.945825 -2.4345 1.516675 0.699575 1.505475 0.985 3.346725 1.03535 5.12085 0.800325 0.37495 1.505475 0.917825 2.5968 0.9738 -0.1287 -0.88985 -0.24065 -1.690175 -0.3134 -2.52965 -0.274225 -0.117525 -0.665975 0.0056 -0.923425 -0.033575 0 -0.3078 0.39175 -0.134325 0.425325 -0.3414 0.0224 -0.1567 -0.21825 -0.1679 -0.1399 -0.414125 0.201475 0.07275 0.3078 0.23505 0.520475 0.2966 0.195875 -0.425325 0 -1.180875 0.027975 -1.53905 0.0056 -0.06715 0.0336 -0.369375 0.1847 -0.319 0.134325 0.044775 -0.0056 0.8115 0.0056 1.1473 0.011175 0.3134 -0.039175 0.610025 0.089525 0.8059 1.052175 -0.145525 2.1211 -0.23505 3.2628 -0.268625 -0.25185 -0.10635 -0.54845 -0.207075 -0.87305 -0.391775 -0.1791 -0.100725 -0.73315 -0.3078 -0.783525 -0.4757 -0.08395 -0.268625 0.212675 -0.40855 0.263025 -0.638 -0.531675 0.291025 -0.6324 -0.279825 -0.761125 -0.6772 -0.111925 -0.363775 -0.179075 -0.638 -0.207075 -0.845075 -0.4645 -0.23505 -0.957 -0.453325 -1.34875 -0.73315Zm5.3279 -0.582025c0.73315 -0.3526 0.867475 1.326375 0.57645 1.86925 0.044775 0.1623 0.195875 0.22385 0.25745 0.36935 -0.40855 0.73315 -0.861875 1.41595 -1.281625 2.1379 0.307825 -0.195875 0.755525 -0.033575 1.119325 -0.1791 0.1343 -0.050375 0.22945 -0.358175 0.330175 -0.604425 0.279825 -0.671575 0.57085 -1.52225 0.699575 -2.160275 0.027975 -0.1455 0.111925 -0.4645 0.08955 -0.593225 -0.033575 -0.23505 -0.347 -0.40855 -0.5093 -0.548475 -0.2966 -0.268625 -0.4813 -0.498075 -0.7947 -0.749925 -0.117525 0.184675 -0.38615 0.3078 -0.4869 0.458925ZM8.141125 3.283425c-0.347 0.38615 -0.274225 1.102525 -0.23505 1.6174 0.6324 -0.39735 1.466275 0.033575 1.4607 0.705175 0.3022 -0.0056 0.111925 -0.374975 0.05595 -0.615625 -0.179075 -0.777925 0.302225 -1.6174 0.0224 -2.328175 -0.542875 0.044775 -0.985 0.26305 -1.304 0.621225Zm2.49605 -2.233025c-0.7891 0.2238625 -1.802075 0.8003075 -2.126675 1.511075 0.251825 -0.039175 0.425325 -0.162305 0.671575 -0.179095 0.09515 -0.0055975 0.218275 0.039175 0.3246 0.0111925 0.212675 -0.055965 0.39735 -0.5372675 0.55965 -0.7163575 0.1567 -0.1734925 0.347 -0.251845 0.475725 -0.4085475 0.08395 -0.0391775 0.20705 -0.0391775 0.21265 -0.1623 -0.033575 -0.0391775 -0.07275 -0.06716 -0.117525 -0.0559675Zm4.113475 0.21267c-0.8227 -0.4645125 -2.21065 -0.8115 -3.0837 -0.3749675 -0.705175 0.3525825 -1.656575 0.9346225 -1.981175 1.6677725 0.3022 0.71075 -0.08955 1.35995 -0.117525 2.081925 -0.0112 0.38615 0.179075 0.71635 0.195875 1.1361 -0.10635 0.173475 -0.41975 0.190275 -0.638025 0.179075 -0.07275 -0.369375 -0.201475 -0.783525 -0.582025 -0.828275 -0.537275 -0.061575 -0.934625 0.38615 -0.957025 0.850675 -0.027975 0.54845 0.41975 1.4551 1.05775 1.393525 0.24625 -0.022375 0.307825 -0.268625 0.57645 -0.268625 0.145525 0.291025 -0.22385 0.38055 -0.263025 0.587625 -0.0112 0.055975 0.027975 0.26305 0.05595 0.363775 0.117525 0.475725 0.374975 1.096925 0.626825 1.4607 0.3246 0.464525 0.957 0.531675 1.639775 0.57645 0.123125 -0.263025 0.57085 -0.24065 0.861875 -0.1735 -0.352575 -0.1399 -0.677175 -0.4757 -0.945825 -0.772325 -0.3078 -0.341375 -0.6212 -0.70515 -0.638 -1.152875 0.58765 0.8115 1.06895 1.52225 2.1323 1.880425 0.8059 0.26865 1.7461 -0.1231 2.367325 -0.55965 0.25745 -0.179075 0.40855 -0.4701 0.59325 -0.72755 0.682775 -0.984975 1.001775 -2.384125 0.9346 -3.744075 -0.027975 -0.559675 -0.027975 -1.119325 -0.21825 -1.4943 -0.195875 -0.39175 -0.861875 -0.749925 -1.253625 -0.39175 -0.07275 -0.38615 0.3246 -0.621215 0.7891 -0.4813 -0.3302 -0.430935 -0.677175 -0.94022 -1.152875 -1.208855Zm1.53345 12.653805c0.6436 -0.319025 1.841275 -0.856275 2.238625 0 0.1511 0.319 0.3246 0.850675 0.39735 1.18085 0.106325 0.458925 -0.117525 1.432725 -0.593225 1.583825 -0.41975 0.134325 -0.90665 0.128725 -1.41035 0.028 -0.06155 -0.050375 -0.123125 -0.134325 -0.173475 -0.223875 -0.3582 -0.011175 -0.699575 0.0168 -0.9794 0.1679 0.027975 0.268625 -0.151125 0.307825 -0.3246 0.363775 -0.123125 0.4981 0.25185 1.1473 0.1623 1.595025 -0.061575 0.3246 -0.458925 0.374975 -0.74995 0.430925 -0.011175 0.1791 0.0112 0.3302 0.033575 0.4813 -0.06715 0.24625 -0.363775 0.386175 -0.6492 0.41975 -0.9346 0.111925 -2.35055 0.1623 -3.245975 -0.1623 -0.25185 -0.615625 -0.447725 -1.359975 -0.6548 -2.059525 -0.873075 0.095125 -1.583825 -0.374975 -2.249825 -0.688375 -0.22945 -0.10635 -0.54845 -0.1679 -0.638 -0.3526 -0.08395 -0.179075 -0.050375 -0.520475 -0.07275 -0.839475 -0.050375 -0.8227 -0.10075 -1.6174 -0.313425 -2.456875 -0.095125 -0.380575 -0.268625 -0.710775 -0.38615 -1.07455 -0.111925 -0.335775 -0.302225 -0.755525 -0.352575 -1.091325 -0.072775 -0.4981 0.39735 -0.526075 0.693975 -0.744325 0.4645 -0.3358 0.828275 -0.5205 1.331975 -0.8227 0.1511 -0.08955 0.598825 -0.3134 0.6492 -0.41975 0.100725 -0.207075 -0.1735 -0.4981 -0.24625 -0.6604 -0.117525 -0.257425 -0.1791 -0.4757 -0.195875 -0.72755 -0.41975 -0.06715 -0.74435 -0.319 -0.934625 -0.598825 -0.319025 -0.4701 -0.542875 -1.337575 -0.26305 -1.992375 0.0224 -0.05035 0.128725 -0.1567 0.145525 -0.23505 0.033575 -0.1567 -0.061575 -0.363775 -0.067175 -0.531675 -0.027975 -0.856275 0.145525 -1.595 0.72195 -1.85245 0.235075 -0.934625 1.07455 -1.242435 1.86365 -1.7069475 0.296625 -0.1734925 0.621225 -0.285425 0.957025 -0.4085475C12.181825 0.07660175 14.034275 0.16055 15.036075 0.916085c0.425325 0.3190025 1.102525 0.996185 1.343175 1.48868 0.6436 1.29281 0.593225 3.45866 0.1455 5.036885 -0.06155 0.212675 -0.1455 0.5205 -0.268625 0.777925 -0.08395 0.1791 -0.347 0.531675 -0.319025 0.688375 0.0336 0.1623 0.60445 0.59325 0.727575 0.710775 0.21825 0.21265 0.638 0.4925 0.671575 0.761125 0.039175 0.285425 -0.123125 0.677175 -0.207075 0.9514 -0.268625 0.91785 -0.537275 1.762925 -0.845075 2.585625Z"/><path fill="#f7e4cd" stroke-width=".25" d="M12.00265 7.559175c0.033575 -0.044775 0.223875 -0.117525 0.4925 0.0112 0 0 -0.319 0.050375 -0.291025 0.582025l-0.1343 -0.027975c0.005575 0.0056 -0.134325 -0.4757 -0.067175 -0.56525Z"/><path fill="#1d1919" stroke-width=".25" d="M14.3197 12.1036c0 0.07835 -0.06715 0.145525 -0.1455 0.145525 -0.07835 0 -0.145525 -0.067175 -0.145525 -0.145525 0 -0.07835 0.067175 -0.1455 0.145525 -0.1455 0.08395 0 0.1455 0.06715 0.1455 0.1455Z"/><path fill="#1d1919" stroke-width=".25" d="M14.4651 12.7808c0 0.07835 -0.067175 0.1455 -0.145525 0.1455 -0.07835 0 -0.1455 -0.06715 -0.1455 -0.1455 0 -0.07835 0.06715 -0.145525 0.1455 -0.145525 0.08395 0 0.145525 0.061575 0.145525 0.145525Z"/><path fill="#231f20" stroke-width=".25" d="M6.8429 21.3435c-0.044775 0.0056 -0.08395 0.0112 -0.117525 0.016775 -0.033575 0.0056 -0.06715 0.0112 -0.111925 0.0224 -0.050375 0.0112 -0.07835 0.033575 -0.08955 0.06715 -0.0112 0.033575 -0.0224 0.067175 -0.0224 0.111925v1.365575c0 0.123125 -0.027975 0.24065 -0.07835 0.346975 -0.05035 0.10635 -0.117525 0.1903 -0.20705 0.26305 -0.08955 0.06715 -0.1903 0.123125 -0.302225 0.1567 -0.111925 0.033575 -0.22945 0.05595 -0.352575 0.05595 -0.218275 0 -0.391775 -0.05035 -0.526075 -0.1567 -0.134325 -0.106325 -0.201475 -0.24625 -0.201475 -0.430925 0 -0.106325 0.027975 -0.195875 0.089525 -0.268625 0.061575 -0.072775 0.145525 -0.10635 0.25185 -0.10635 0.10075 0 0.1791 0.028 0.24065 0.08955 0.061575 0.061575 0.08955 0.134325 0.08955 0.218275 0 0.07275 -0.027975 0.1455 -0.07835 0.207075 -0.050375 0.06155 -0.111925 0.123125 -0.1791 0.173475v0.0224c0.0112 0.022375 0.0336 0.044775 0.067175 0.06155 0.033575 0.0168 0.07275 0.0224 0.106325 0.0224 0.139925 0 0.25185 -0.050375 0.3302 -0.151125 0.07835 -0.100725 0.117525 -0.251825 0.117525 -0.4533v-1.39915c0 -0.039175 -0.0056 -0.07835 -0.0168 -0.106325 -0.011175 -0.028 -0.04475 -0.050375 -0.095125 -0.072775 -0.033575 -0.016775 -0.07835 -0.027975 -0.128725 -0.039175 -0.050375 -0.011175 -0.08955 -0.016775 -0.123125 -0.022375v-0.134325h1.320775v0.139925h0.0168Z"/><path fill="#231f20" stroke-width=".25" d="M8.913375 23.268675c-0.039175 0.067175 -0.08955 0.128725 -0.145525 0.1903 -0.05595 0.06155 -0.123125 0.106325 -0.195875 0.1511 -0.07835 0.044775 -0.1567 0.07835 -0.23505 0.100725 -0.07835 0.0224 -0.1735 0.0336 -0.274225 0.0336 -0.1735 0 -0.319 -0.0224 -0.447725 -0.072775 -0.123125 -0.05035 -0.22945 -0.111925 -0.307825 -0.195875 -0.083925 -0.08395 -0.1399 -0.179075 -0.184675 -0.291025 -0.039175 -0.111925 -0.06155 -0.23505 -0.06155 -0.363775 0 -0.117525 0.022375 -0.23505 0.06715 -0.341375 0.044775 -0.10635 0.106325 -0.207075 0.184675 -0.291025 0.07835 -0.08395 0.1791 -0.1511 0.302225 -0.201475 0.123125 -0.050375 0.25745 -0.07835 0.40295 -0.07835 0.1623 0 0.296625 0.022375 0.40295 0.06155 0.106325 0.039175 0.190275 0.09515 0.25745 0.1623 0.06715 0.067175 0.111925 0.145525 0.1455 0.235075 0.027975 0.089525 0.044775 0.184675 0.044775 0.285425v0.111925h-1.180875c0 0.24065 0.044775 0.419725 0.139925 0.54285 0.089525 0.123125 0.24065 0.1847 0.436525 0.1847 0.111925 0 0.207075 -0.028 0.296625 -0.08955 0.089525 -0.06155 0.1623 -0.134325 0.22385 -0.22945l0.128725 0.095125Zm-0.666 -0.665975c0 -0.067175 -0.0056 -0.139925 -0.011175 -0.212675 -0.0056 -0.07275 -0.0168 -0.134325 -0.0392 -0.1791 -0.022375 -0.05595 -0.04475 -0.095125 -0.083925 -0.123125 -0.0336 -0.027975 -0.078375 -0.039175 -0.128725 -0.039175 -0.08955 0 -0.1623 0.044775 -0.212675 0.134325 -0.055975 0.08955 -0.08395 0.23505 -0.08955 0.430925l0.56525 -0.011175Z"/><path fill="#231f20" stroke-width=".25" d="M11.3815 23.68285h-1.05215v-0.128725c0.022375 0 0.05035 -0.0056 0.07835 -0.011175 0.033575 -0.0056 0.05595 -0.0112 0.07275 -0.0168 0.022375 -0.0112 0.039175 -0.033575 0.050375 -0.055975 0.011175 -0.022375 0.016775 -0.06155 0.016775 -0.106325V22.54675c0 -0.117525 -0.022375 -0.207075 -0.06715 -0.268625 -0.044775 -0.061575 -0.10635 -0.08955 -0.195875 -0.08955 -0.044775 0 -0.08955 0.0056 -0.128725 0.022375 -0.039175 0.0112 -0.07835 0.0336 -0.117525 0.061575 -0.033575 0.022375 -0.061575 0.044775 -0.08395 0.07275 -0.0224 0.0224 -0.039175 0.044775 -0.050375 0.06715v0.934625c0 0.039175 0.0056 0.072775 0.0168 0.10075 0.011175 0.027975 0.033575 0.050375 0.05595 0.06155 0.0168 0.0112 0.039175 0.0224 0.067175 0.028 0.027975 0.0056 0.05595 0.011175 0.08395 0.016775v0.128725h-1.06335v-0.128725c0.027975 0 0.05595 -0.0056 0.08955 -0.011175 0.027975 -0.0056 0.05595 -0.0112 0.07835 -0.0168 0.039175 -0.0112 0.06155 -0.033575 0.07835 -0.061575 0.011175 -0.027975 0.022375 -0.06155 0.022375 -0.106325v-1.018575c0 -0.033575 -0.0112 -0.07275 -0.027975 -0.106325 -0.0168 -0.033575 -0.044775 -0.061575 -0.07275 -0.08395 -0.0224 -0.0112 -0.044775 -0.027975 -0.07835 -0.033575 -0.0336 -0.0112 -0.067175 -0.0168 -0.10635 -0.0168v-0.128725l0.8339 -0.044775 0.027975 0.028v0.25185h0.0056c0.033575 -0.028 0.07275 -0.061575 0.117525 -0.10635 0.044775 -0.039175 0.08955 -0.07275 0.128725 -0.100725 0.044775 -0.028 0.100725 -0.050375 0.1679 -0.072775 0.06715 -0.022375 0.1455 -0.027975 0.22385 -0.027975 0.190275 0 0.3302 0.055975 0.42535 0.1623 0.095125 0.106325 0.1399 0.25185 0.1399 0.430925v0.856275c0 0.044775 0.0056 0.07835 0.0168 0.10075 0.011175 0.027975 0.039175 0.044775 0.07275 0.06155 0.016775 0.0056 0.039175 0.0168 0.06715 0.0224 0.028 0.0056 0.055975 0.0112 0.09515 0.016775v0.134325h0.0112Z"/><path fill="#231f20" stroke-width=".25" d="M13.788225 23.68285h-0.8227c-0.100725 -0.1791 -0.195875 -0.3302 -0.279825 -0.453325 -0.08395 -0.123125 -0.1623 -0.24065 -0.23505 -0.341375l-0.100725 0.089525v0.380575c0 0.039175 0.0056 0.07835 0.016775 0.10075 0.0112 0.027975 0.033575 0.04475 0.07275 0.06155 0.0224 0.0112 0.044775 0.0168 0.072775 0.022375 0.027975 0.0056 0.05595 0.0112 0.08395 0.0112v0.128725h-1.08575v-0.128725c0.028 0 0.055975 -0.0056 0.08955 -0.0112 0.027975 -0.005575 0.055975 -0.011175 0.07835 -0.016775 0.039175 -0.0112 0.061575 -0.033575 0.07835 -0.061575 0.0112 -0.027975 0.0224 -0.06155 0.0224 -0.106325v-1.9476c0 -0.039175 -0.0112 -0.07835 -0.028 -0.117525 -0.016775 -0.039175 -0.039175 -0.07275 -0.07275 -0.09515 -0.022375 -0.011175 -0.05595 -0.027975 -0.100725 -0.033575 -0.044775 -0.0112 -0.08395 -0.016775 -0.123125 -0.016775v-0.128725l0.86745 -0.044775 0.028 0.027975v1.8021c0.08395 -0.07835 0.184675 -0.1679 0.291 -0.26865 0.10635 -0.100725 0.1959 -0.184675 0.25745 -0.251825 0.039175 -0.039175 0.061575 -0.067175 0.061575 -0.08955 0.005575 -0.0224 0.005575 -0.033575 0.005575 -0.039175 0 -0.0224 -0.016775 -0.039175 -0.05595 -0.050375 -0.039175 -0.0112 -0.08955 -0.027975 -0.1679 -0.039175v-0.123125h0.88425v0.123125c-0.117525 0.033575 -0.207075 0.06155 -0.268625 0.08955 -0.061575 0.027975 -0.128725 0.06715 -0.201475 0.111925 -0.050375 0.033575 -0.09515 0.06715 -0.139925 0.100725 -0.044775 0.0336 -0.095125 0.078375 -0.1567 0.128725 0.111925 0.1679 0.218275 0.319 0.3134 0.458925 0.09515 0.139925 0.195875 0.291025 0.302225 0.447725 0.033575 0.055975 0.07835 0.08955 0.134325 0.111925 0.05595 0.0168 0.106325 0.027975 0.1623 0.033575v0.134325h0.016775Z"/><path fill="#231f20" stroke-width=".25" d="M14.90755 23.68285h-1.102525v-0.128725c0.027975 0 0.061575 -0.0056 0.08955 -0.0112 0.027975 -0.0056 0.05595 -0.0112 0.07275 -0.0168 0.039175 -0.011175 0.061575 -0.033575 0.07835 -0.06155 0.0168 -0.027975 0.0224 -0.061575 0.0224 -0.106325v-1.018575c0 -0.039175 -0.0112 -0.07835 -0.028 -0.10635 -0.016775 -0.033575 -0.039175 -0.05595 -0.06715 -0.07275 -0.0224 -0.0112 -0.050375 -0.027975 -0.09515 -0.039175 -0.044775 -0.0112 -0.08395 -0.022375 -0.117525 -0.022375v-0.128725l0.856275 -0.044775 0.027975 0.027975v1.38795c0 0.039175 0.0112 0.07275 0.028 0.106325 0.016775 0.028 0.044775 0.050375 0.07275 0.061575 0.022375 0.0112 0.050375 0.022375 0.07835 0.027975 0.027975 0.0056 0.055975 0.0112 0.08955 0.0168v0.128725h-0.0056Zm-0.25185 -2.37855c0 0.08955 -0.033575 0.1623 -0.100725 0.223875 -0.067175 0.06155 -0.151125 0.095125 -0.240675 0.095125 -0.095125 0 -0.173475 -0.033575 -0.246225 -0.095125 -0.067175 -0.061575 -0.10075 -0.139925 -0.10075 -0.223875 0 -0.08955 0.033575 -0.1623 0.10075 -0.22945 0.06715 -0.061575 0.1511 -0.09515 0.246225 -0.09515 0.09515 0 0.1735 0.033575 0.240675 0.09515 0.06715 0.06155 0.100725 0.1399 0.100725 0.22945Z"/><path fill="#231f20" stroke-width=".25" d="M17.3755 23.68285h-1.05215v-0.128725c0.0224 0 0.050375 -0.0056 0.07835 -0.011175 0.0336 -0.0056 0.055975 -0.0112 0.072775 -0.0168 0.022375 -0.0112 0.039175 -0.033575 0.05035 -0.055975 0.0112 -0.022375 0.0168 -0.06155 0.0168 -0.106325V22.54675c0 -0.117525 -0.0224 -0.207075 -0.06715 -0.268625 -0.044775 -0.061575 -0.10635 -0.08955 -0.1959 -0.08955 -0.04475 0 -0.089525 0.0056 -0.1287 0.022375 -0.039175 0.0168 -0.07835 0.0336 -0.11755 0.061575 -0.033575 0.022375 -0.06155 0.044775 -0.083925 0.07275 -0.0224 0.0224 -0.0392 0.044775 -0.050375 0.06715v0.934625c0 0.039175 0.0056 0.072775 0.016775 0.10075 0.0112 0.027975 0.0336 0.050375 0.055975 0.06155 0.0168 0.0112 0.039175 0.0224 0.06715 0.028 0.028 0.0056 0.055975 0.011175 0.08395 0.016775v0.128725h-1.06335v-0.128725c0.028 0 0.055975 -0.0056 0.08955 -0.011175 0.028 -0.0056 0.055975 -0.0112 0.07835 -0.0168 0.039175 -0.0112 0.061575 -0.033575 0.07835 -0.061575 0.0112 -0.027975 0.0224 -0.06155 0.0224 -0.106325v-1.018575c0 -0.033575 -0.0112 -0.07275 -0.027975 -0.106325 -0.0168 -0.033575 -0.044775 -0.061575 -0.072775 -0.08395 -0.022375 -0.0112 -0.044775 -0.027975 -0.07835 -0.033575 -0.033575 -0.0112 -0.06715 -0.0168 -0.106325 -0.0168v-0.128725l0.833875 -0.044775 0.028 0.028v0.25185h0.0056c0.033575 -0.028 0.07275 -0.061575 0.117525 -0.10635 0.044775 -0.039175 0.089525 -0.07275 0.1287 -0.100725 0.044775 -0.028 0.10075 -0.050375 0.1679 -0.072775 0.067175 -0.022375 0.145525 -0.027975 0.223875 -0.027975 0.190275 0 0.3302 0.055975 0.425325 0.1623 0.09515 0.106325 0.139925 0.25185 0.139925 0.430925v0.856275c0 0.044775 0.0056 0.07835 0.016775 0.10075 0.0112 0.027975 0.039175 0.044775 0.072775 0.06155 0.016775 0.0056 0.039175 0.0168 0.06715 0.0224 0.027975 0.0056 0.055975 0.0112 0.09515 0.016775v0.134325h0.011175Z"/><path fill="#231f20" stroke-width=".25" d="M18.343675 23.7444c-0.111925 0 -0.22385 -0.0168 -0.3302 -0.050375 -0.106325 -0.033575 -0.190275 -0.067175 -0.251825 -0.10635l-0.050375 0.11755h-0.134325l-0.022375 -0.6492h0.1287c0.0168 0.05035 0.044775 0.111925 0.08955 0.179075 0.039175 0.06715 0.08955 0.123125 0.139925 0.1791 0.05595 0.05035 0.117525 0.095125 0.190275 0.1343 0.07275 0.0336 0.1455 0.055975 0.223875 0.055975 0.106325 0 0.184675 -0.022375 0.23505 -0.06155s0.07835 -0.10635 0.07835 -0.1903c0 -0.044775 -0.0112 -0.08395 -0.033575 -0.117525 -0.0224 -0.027975 -0.055975 -0.05595 -0.09515 -0.07835 -0.044775 -0.022375 -0.09515 -0.044775 -0.1511 -0.06155 -0.055975 -0.0168 -0.123125 -0.0336 -0.201475 -0.061575 -0.07835 -0.022375 -0.145525 -0.044775 -0.201475 -0.07275 -0.055975 -0.0224 -0.117525 -0.061575 -0.1735 -0.111925 -0.050375 -0.044775 -0.09515 -0.10075 -0.123125 -0.1623 -0.033575 -0.061575 -0.044775 -0.139925 -0.044775 -0.229475 0 -0.1623 0.06715 -0.2966 0.207075 -0.39735 0.139925 -0.100725 0.319 -0.1511 0.542875 -0.1511 0.106325 0 0.201475 0.0112 0.291 0.033575 0.08955 0.022375 0.1623 0.044775 0.223875 0.07275l0.039175 -0.100725h0.134325l0.027975 0.593225h-0.123125c-0.039175 -0.123125 -0.111925 -0.22385 -0.207075 -0.3134 -0.100725 -0.08955 -0.207075 -0.134325 -0.319 -0.134325 -0.08955 0 -0.1623 0.0168 -0.212675 0.055975s-0.07835 0.08955 -0.07835 0.1567c0 0.08955 0.039175 0.1511 0.111925 0.190275 0.072775 0.039175 0.1791 0.07835 0.313425 0.111925 0.207075 0.055975 0.358175 0.128725 0.4589 0.218275 0.09515 0.09515 0.145525 0.212675 0.145525 0.352575 0 0.1903 -0.07275 0.3414 -0.223875 0.442125 -0.1679 0.10075 -0.363775 0.156725 -0.604425 0.156725Z"/></svg>